<svg width="100" height="100" xmlns="http://www.w3.org/2000/svg">
  <g fill="none" fill-rule="evenodd">
    <circle fill="#D6E2F4" cx="50" cy="50" r="50"/>
    <g fill="#4A4A4A">
      <path d="M50.018 29.86c-4.296 0-7.79 3.494-7.79 7.79 0 4.294 3.494 7.79 7.79 7.79 4.295 0 7.79-3.496 7.79-7.79 0-4.296-3.495-7.79-7.79-7.79zm0 13.473c-3.135 0-5.685-2.55-5.685-5.684 0-3.135 2.55-5.685 5.685-5.685 3.134 0 5.684 2.55 5.684 5.684 0 3.133-2.55 5.683-5.684 5.683z"/>
      <path d="M50.018 34.35c-.582 0-1.053.472-1.053 1.054 0 .58.47 1.052 1.053 1.052.657 0 1.193.535 1.193 1.193 0 .58.472 1.052 1.053 1.052.58 0 1.053-.472 1.053-1.053 0-1.82-1.48-3.3-3.298-3.3z"/>
      <path d="M67.465 67.436l-6.68-10.44c.927-8.983 1.513-16.684 1.513-20.47 0-7.845-3.178-13.465-5.845-16.798-2.89-3.615-5.773-5.365-5.894-5.438-.334-.2-.75-.2-1.084 0-.12.073-3.003 1.823-5.895 5.438-2.665 3.333-5.843 8.953-5.843 16.798 0 3.786.586 11.487 1.512 20.47L32.57 67.44C31.542 69.05 31 70.913 31 72.825v11.98c0 .446.28.843.7.992.115.042.234.062.352.062.31 0 .612-.137.815-.386l8.58-10.486C42.042 76.753 43.713 78 45.63 78h3.335v6.807c0 .58.47 1.053 1.053 1.053.58 0 1.052-.472 1.052-1.053V78h3.334c1.92 0 3.59-1.247 4.185-3.012l8.578 10.486c.204.25.505.386.815.386.118 0 .237-.02.353-.062.42-.15.7-.546.7-.99V72.825c0-1.91-.543-3.774-1.57-5.39zm-34.36 5.39c0-1.51.43-2.983 1.24-4.255l5.26-8.222c.417 3.85.89 7.866 1.397 11.86l-7.897 9.65v-9.032zm21.3 3.07H51.07V57.86c0-.582-.47-1.053-1.052-1.053-.582 0-1.053.47-1.053 1.053v18.035H45.63c-1.156 0-2.14-.868-2.29-2.02-.735-5.632-1.403-11.37-1.954-16.67-.002-.04-.006-.08-.012-.117-.937-9.037-1.532-16.788-1.532-20.562 0-4.077.895-7.86 2.663-11.298h8.635c.582 0 1.053-.47 1.053-1.053 0-.58-.47-1.052-1.053-1.052h-7.414c.445-.687.926-1.358 1.447-2.014 1.948-2.452 3.92-3.995 4.844-4.65 1.15.816 3.915 3.01 6.274 6.663h-.658c-.582 0-1.053.47-1.053 1.052 0 .582.47 1.053 1.052 1.053h1.876c1.54 2.998 2.685 6.753 2.685 11.298 0 3.774-.595 11.525-1.532 20.562-.005.038-.01.077-.01.116-.552 5.3-1.22 11.038-1.954 16.672-.15 1.15-1.135 2.02-2.292 2.02zm12.525 5.962l-7.897-9.65c.508-3.994.98-8.01 1.398-11.86l5.26 8.22c.81 1.275 1.24 2.748 1.24 4.258v9.032z"/>
    </g>
  </g>
</svg>
