<svg width="100" height="100" xmlns="http://www.w3.org/2000/svg">
  <g fill="none" fill-rule="evenodd">
    <circle fill="#D6E2F4" cx="50" cy="50" r="50"/>
    <path d="M27.5 53.5c4.006 0 7.25-3.244 7.25-7.25S31.506 39 27.5 39s-7.25 3.244-7.25 7.25 3.244 7.25 7.25 7.25zm0 3.625c-4.84 0-14.5 2.43-14.5 7.25V68h29v-3.625c0-4.82-9.66-7.25-14.5-7.25zM74.5 53.5c4.006 0 7.25-3.244 7.25-7.25S78.506 39 74.5 39s-7.25 3.244-7.25 7.25 3.244 7.25 7.25 7.25zm0 3.625c-4.84 0-14.5 2.43-14.5 7.25V68h29v-3.625c0-4.82-9.66-7.25-14.5-7.25zM47.547 52.333L44 55.89l3.547 3.554v-2.666h6.23V55h-6.23v-2.667zM60 50.556L56.453 47v2.667h-6.23v1.777h6.23v2.667L60 50.557z" fill="#4A4A4A"/>
  </g>
</svg>
