<svg width="100" height="100" xmlns="http://www.w3.org/2000/svg" xmlns:xlink="http://www.w3.org/1999/xlink">
  <defs>
    <rect id="a" width="36" height="36" rx="2"/>
    <mask id="d" x="0" y="0" width="36" height="36" fill="#fff">
      <use xlink:href="#a"/>
    </mask>
    <rect id="b" width="36" height="36" rx="2"/>
    <mask id="e" x="0" y="0" width="36" height="36" fill="#fff">
      <use xlink:href="#b"/>
    </mask>
    <rect id="c" width="36" height="36" rx="2"/>
    <mask id="f" x="0" y="0" width="36" height="36" fill="#fff">
      <use xlink:href="#c"/>
    </mask>
  </defs>
  <g fill="none" fill-rule="evenodd">
    <circle fill="#D6E2F4" cx="50" cy="50" r="50"/>
    <g transform="translate(11 8)">
      <use stroke-opacity=".657" stroke="#9B9B9B" mask="url(#d)" stroke-width="2" xlink:href="#a"/>
      <g fill="#4A4A4A">
        <path d="M19.617 17.36c.07.138.21.218.356.218.06 0 .123-.014.18-.044.025-.012 2.374-1.206 3.533-1.572.21-.066.327-.29.26-.5-.066-.21-.29-.328-.5-.26-1.222.385-3.555 1.57-3.654 1.62-.197.1-.275.34-.175.538zM19.973 12.787c.06 0 .123-.014.18-.044.025-.012 2.374-1.205 3.533-1.57.21-.068.327-.292.26-.502-.066-.21-.29-.326-.5-.26-1.222.386-3.555 1.572-3.654 1.622-.197.1-.275.34-.175.537.07.137.21.217.356.217z"/>
        <path d="M29.554 11.988c-.22 0-.4.18-.4.4v15.57c0 .66-.536 1.197-1.197 1.197h-9.58v-.92c.58-.202 2.097-.677 3.592-.677 3.477 0 5.838.77 5.86.778.122.04.256.02.36-.055.105-.074.166-.195.166-.323V10.392c0-.188-.13-.35-.312-.39 0 0-.313-.07-.848-.168-.216-.04-.425.104-.465.32-.04.217.105.425.32.465.205.037.376.07.508.096v16.71c-.905-.236-2.914-.666-5.59-.666-1.74 0-3.447.57-3.976.765-.47-.208-1.89-.765-3.608-.765-2.75 0-5.015.453-5.99.684V10.7c.8-.195 3.153-.708 5.99-.708 1.455 0 2.704.453 3.193.658v15.71c0 .144.078.277.203.348.125.07.28.07.402-.005.04-.024 3.995-2.387 7.506-3.557.163-.054.273-.206.273-.38V6.4c0-.132-.063-.254-.17-.33-.108-.073-.245-.09-.37-.045-3.193 1.198-6.425 3.21-6.457 3.23-.187.117-.244.363-.127.55.116.187.363.244.55.127.03-.02 2.84-1.768 5.777-2.95v15.5c-2.725.947-5.57 2.493-6.787 3.185V10.392c0-.152-.086-.29-.22-.358-.07-.034-1.706-.84-3.772-.84-3.608 0-6.38.78-6.498.814-.17.05-.29.206-.29.384v17.565c0 .125.06.243.16.32.07.052.154.08.24.08.037 0 .074-.006.11-.016.027-.007 2.788-.782 6.278-.782 1.46 0 2.706.454 3.193.658v.94h-9.58c-.66 0-1.198-.538-1.198-1.2V12.39c0-.22-.18-.4-.4-.4-.22 0-.4.18-.4.4v15.57c0 1.1.896 1.995 1.996 1.995h19.96c1.102 0 1.997-.895 1.997-1.996v-15.57c0-.22-.178-.4-.4-.4z"/>
        <path d="M19.617 14.964c.07.138.21.218.356.218.06 0 .123-.014.18-.043.025-.013 2.374-1.207 3.533-1.573.21-.067.327-.29.26-.5-.066-.21-.29-.328-.5-.262-1.222.386-3.555 1.572-3.654 1.622-.197.1-.275.34-.175.537zM19.617 19.755c.07.138.21.218.356.218.06 0 .123-.014.18-.044.025-.013 2.374-1.206 3.533-1.572.21-.067.327-.29.26-.5-.066-.21-.29-.328-.5-.262-1.222.386-3.555 1.572-3.654 1.622-.197.1-.275.34-.175.537zM15.672 13.41c-2.465-.58-5.266.157-5.384.19-.213.056-.34.275-.282.488.048.178.21.296.385.296.035 0 .07-.005.105-.014.027-.007 2.724-.717 4.995-.184.214.05.43-.083.48-.298.05-.214-.083-.43-.298-.48zM15.672 15.804c-2.465-.578-5.266.16-5.384.19-.213.057-.34.276-.282.49.048.178.21.295.385.295.035 0 .07-.005.105-.014.027-.008 2.724-.717 4.995-.184.214.05.43-.084.48-.298.05-.215-.083-.43-.298-.48zM19.617 22.15c.07.138.21.218.356.218.06 0 .123-.014.18-.043.025-.012 2.374-1.206 3.533-1.572.21-.067.327-.29.26-.5-.066-.21-.29-.328-.5-.262-1.222.387-3.555 1.573-3.654 1.623-.197.1-.275.34-.175.537zM15.672 18.2c-2.465-.578-5.266.158-5.384.19-.213.057-.34.275-.282.49.048.177.21.295.385.295.035 0 .07-.005.105-.014.027-.007 2.724-.716 4.995-.183.214.05.43-.083.48-.298.05-.215-.083-.43-.298-.48zM15.672 22.99c-2.465-.578-5.266.16-5.384.19-.213.057-.34.276-.282.49.048.178.21.296.385.296.035 0 .07-.005.105-.014.027-.008 2.724-.717 4.995-.185.214.05.43-.083.48-.297.05-.215-.083-.43-.298-.48zM15.672 20.595c-2.465-.58-5.266.158-5.384.19-.213.057-.34.276-.282.49.048.177.21.295.385.295.035 0 .07-.005.105-.014.027-.007 2.724-.717 4.995-.184.214.05.43-.083.48-.298.05-.214-.083-.43-.298-.48z"/>
      </g>
    </g>
    <g transform="translate(55 8)">
      <rect fill="#354051" width="36" height="36" rx="2"/>
      <g fill="#FFF">
        <path d="M19.617 17.36c.07.138.21.218.356.218.06 0 .123-.014.18-.044.025-.012 2.374-1.206 3.533-1.572.21-.066.327-.29.26-.5-.066-.21-.29-.328-.5-.26-1.222.385-3.555 1.57-3.654 1.62-.197.1-.275.34-.175.538zM19.973 12.787c.06 0 .123-.014.18-.044.025-.012 2.374-1.205 3.533-1.57.21-.068.327-.292.26-.502-.066-.21-.29-.326-.5-.26-1.222.386-3.555 1.572-3.654 1.622-.197.1-.275.34-.175.537.07.137.21.217.356.217z"/>
        <path d="M29.554 11.988c-.22 0-.4.18-.4.4v15.57c0 .66-.536 1.197-1.197 1.197h-9.58v-.92c.58-.202 2.097-.677 3.592-.677 3.477 0 5.838.77 5.86.778.122.04.256.02.36-.055.105-.074.166-.195.166-.323V10.392c0-.188-.13-.35-.312-.39 0 0-.313-.07-.848-.168-.216-.04-.425.104-.465.32-.04.217.105.425.32.465.205.037.376.07.508.096v16.71c-.905-.236-2.914-.666-5.59-.666-1.74 0-3.447.57-3.976.765-.47-.208-1.89-.765-3.608-.765-2.75 0-5.015.453-5.99.684V10.7c.8-.195 3.153-.708 5.99-.708 1.455 0 2.704.453 3.193.658v15.71c0 .144.078.277.203.348.125.07.28.07.402-.005.04-.024 3.995-2.387 7.506-3.557.163-.054.273-.206.273-.38V6.4c0-.132-.063-.254-.17-.33-.108-.073-.245-.09-.37-.045-3.193 1.198-6.425 3.21-6.457 3.23-.187.117-.244.363-.127.55.116.187.363.244.55.127.03-.02 2.84-1.768 5.777-2.95v15.5c-2.725.947-5.57 2.493-6.787 3.185V10.392c0-.152-.086-.29-.22-.358-.07-.034-1.706-.84-3.772-.84-3.608 0-6.38.78-6.498.814-.17.05-.29.206-.29.384v17.565c0 .125.06.243.16.32.07.052.154.08.24.08.037 0 .074-.006.11-.016.027-.007 2.788-.782 6.278-.782 1.46 0 2.706.454 3.193.658v.94h-9.58c-.66 0-1.198-.538-1.198-1.2V12.39c0-.22-.18-.4-.4-.4-.22 0-.4.18-.4.4v15.57c0 1.1.896 1.995 1.996 1.995h19.96c1.102 0 1.997-.895 1.997-1.996v-15.57c0-.22-.178-.4-.4-.4z"/>
        <path d="M19.617 14.964c.07.138.21.218.356.218.06 0 .123-.014.18-.043.025-.013 2.374-1.207 3.533-1.573.21-.067.327-.29.26-.5-.066-.21-.29-.328-.5-.262-1.222.386-3.555 1.572-3.654 1.622-.197.1-.275.34-.175.537zM19.617 19.755c.07.138.21.218.356.218.06 0 .123-.014.18-.044.025-.013 2.374-1.206 3.533-1.572.21-.067.327-.29.26-.5-.066-.21-.29-.328-.5-.262-1.222.386-3.555 1.572-3.654 1.622-.197.1-.275.34-.175.537zM15.672 13.41c-2.465-.58-5.266.157-5.384.19-.213.056-.34.275-.282.488.048.178.21.296.385.296.035 0 .07-.005.105-.014.027-.007 2.724-.717 4.995-.184.214.05.43-.083.48-.298.05-.214-.083-.43-.298-.48zM15.672 15.804c-2.465-.578-5.266.16-5.384.19-.213.057-.34.276-.282.49.048.178.21.295.385.295.035 0 .07-.005.105-.014.027-.008 2.724-.717 4.995-.184.214.05.43-.084.48-.298.05-.215-.083-.43-.298-.48zM19.617 22.15c.07.138.21.218.356.218.06 0 .123-.014.18-.043.025-.012 2.374-1.206 3.533-1.572.21-.067.327-.29.26-.5-.066-.21-.29-.328-.5-.262-1.222.387-3.555 1.573-3.654 1.623-.197.1-.275.34-.175.537zM15.672 18.2c-2.465-.578-5.266.158-5.384.19-.213.057-.34.275-.282.49.048.177.21.295.385.295.035 0 .07-.005.105-.014.027-.007 2.724-.716 4.995-.183.214.05.43-.083.48-.298.05-.215-.083-.43-.298-.48zM15.672 22.99c-2.465-.578-5.266.16-5.384.19-.213.057-.34.276-.282.49.048.178.21.296.385.296.035 0 .07-.005.105-.014.027-.008 2.724-.717 4.995-.185.214.05.43-.083.48-.297.05-.215-.083-.43-.298-.48zM15.672 20.595c-2.465-.58-5.266.158-5.384.19-.213.057-.34.276-.282.49.048.177.21.295.385.295.035 0 .07-.005.105-.014.027-.007 2.724-.717 4.995-.184.214.05.43-.083.48-.298.05-.214-.083-.43-.298-.48z"/>
      </g>
    </g>
    <g transform="translate(11 52)">
      <use stroke-opacity=".657" stroke="#9B9B9B" mask="url(#e)" stroke-width="2" xlink:href="#b"/>
      <g fill="#4A4A4A">
        <path d="M19.617 17.36c.07.138.21.218.356.218.06 0 .123-.014.18-.044.025-.012 2.374-1.206 3.533-1.572.21-.066.327-.29.26-.5-.066-.21-.29-.328-.5-.26-1.222.385-3.555 1.57-3.654 1.62-.197.1-.275.34-.175.538zM19.973 12.787c.06 0 .123-.014.18-.044.025-.012 2.374-1.205 3.533-1.57.21-.068.327-.292.26-.502-.066-.21-.29-.326-.5-.26-1.222.386-3.555 1.572-3.654 1.622-.197.1-.275.34-.175.537.07.137.21.217.356.217z"/>
        <path d="M29.554 11.988c-.22 0-.4.18-.4.4v15.57c0 .66-.536 1.197-1.197 1.197h-9.58v-.92c.58-.202 2.097-.677 3.592-.677 3.477 0 5.838.77 5.86.778.122.04.256.02.36-.055.105-.074.166-.195.166-.323V10.392c0-.188-.13-.35-.312-.39 0 0-.313-.07-.848-.168-.216-.04-.425.104-.465.32-.04.217.105.425.32.465.205.037.376.07.508.096v16.71c-.905-.236-2.914-.666-5.59-.666-1.74 0-3.447.57-3.976.765-.47-.208-1.89-.765-3.608-.765-2.75 0-5.015.453-5.99.684V10.7c.8-.195 3.153-.708 5.99-.708 1.455 0 2.704.453 3.193.658v15.71c0 .144.078.277.203.348.125.07.28.07.402-.005.04-.024 3.995-2.387 7.506-3.557.163-.054.273-.206.273-.38V6.4c0-.132-.063-.254-.17-.33-.108-.073-.245-.09-.37-.045-3.193 1.198-6.425 3.21-6.457 3.23-.187.117-.244.363-.127.55.116.187.363.244.55.127.03-.02 2.84-1.768 5.777-2.95v15.5c-2.725.947-5.57 2.493-6.787 3.185V10.392c0-.152-.086-.29-.22-.358-.07-.034-1.706-.84-3.772-.84-3.608 0-6.38.78-6.498.814-.17.05-.29.206-.29.384v17.565c0 .125.06.243.16.32.07.052.154.08.24.08.037 0 .074-.006.11-.016.027-.007 2.788-.782 6.278-.782 1.46 0 2.706.454 3.193.658v.94h-9.58c-.66 0-1.198-.538-1.198-1.2V12.39c0-.22-.18-.4-.4-.4-.22 0-.4.18-.4.4v15.57c0 1.1.896 1.995 1.996 1.995h19.96c1.102 0 1.997-.895 1.997-1.996v-15.57c0-.22-.178-.4-.4-.4z"/>
        <path d="M19.617 14.964c.07.138.21.218.356.218.06 0 .123-.014.18-.043.025-.013 2.374-1.207 3.533-1.573.21-.067.327-.29.26-.5-.066-.21-.29-.328-.5-.262-1.222.386-3.555 1.572-3.654 1.622-.197.1-.275.34-.175.537zM19.617 19.755c.07.138.21.218.356.218.06 0 .123-.014.18-.044.025-.013 2.374-1.206 3.533-1.572.21-.067.327-.29.26-.5-.066-.21-.29-.328-.5-.262-1.222.386-3.555 1.572-3.654 1.622-.197.1-.275.34-.175.537zM15.672 13.41c-2.465-.58-5.266.157-5.384.19-.213.056-.34.275-.282.488.048.178.21.296.385.296.035 0 .07-.005.105-.014.027-.007 2.724-.717 4.995-.184.214.05.43-.083.48-.298.05-.214-.083-.43-.298-.48zM15.672 15.804c-2.465-.578-5.266.16-5.384.19-.213.057-.34.276-.282.49.048.178.21.295.385.295.035 0 .07-.005.105-.014.027-.008 2.724-.717 4.995-.184.214.05.43-.084.48-.298.05-.215-.083-.43-.298-.48zM19.617 22.15c.07.138.21.218.356.218.06 0 .123-.014.18-.043.025-.012 2.374-1.206 3.533-1.572.21-.067.327-.29.26-.5-.066-.21-.29-.328-.5-.262-1.222.387-3.555 1.573-3.654 1.623-.197.1-.275.34-.175.537zM15.672 18.2c-2.465-.578-5.266.158-5.384.19-.213.057-.34.275-.282.49.048.177.21.295.385.295.035 0 .07-.005.105-.014.027-.007 2.724-.716 4.995-.183.214.05.43-.083.48-.298.05-.215-.083-.43-.298-.48zM15.672 22.99c-2.465-.578-5.266.16-5.384.19-.213.057-.34.276-.282.49.048.178.21.296.385.296.035 0 .07-.005.105-.014.027-.008 2.724-.717 4.995-.185.214.05.43-.083.48-.297.05-.215-.083-.43-.298-.48zM15.672 20.595c-2.465-.58-5.266.158-5.384.19-.213.057-.34.276-.282.49.048.177.21.295.385.295.035 0 .07-.005.105-.014.027-.007 2.724-.717 4.995-.184.214.05.43-.083.48-.298.05-.214-.083-.43-.298-.48z"/>
      </g>
    </g>
    <g transform="translate(55 52)">
      <use stroke-opacity=".657" stroke="#9B9B9B" mask="url(#f)" stroke-width="2" xlink:href="#c"/>
      <g fill="#4A4A4A">
        <path d="M19.617 17.36c.07.138.21.218.356.218.06 0 .123-.014.18-.044.025-.012 2.374-1.206 3.533-1.572.21-.066.327-.29.26-.5-.066-.21-.29-.328-.5-.26-1.222.385-3.555 1.57-3.654 1.62-.197.1-.275.34-.175.538zM19.973 12.787c.06 0 .123-.014.18-.044.025-.012 2.374-1.205 3.533-1.57.21-.068.327-.292.26-.502-.066-.21-.29-.326-.5-.26-1.222.386-3.555 1.572-3.654 1.622-.197.1-.275.34-.175.537.07.137.21.217.356.217z"/>
        <path d="M29.554 11.988c-.22 0-.4.18-.4.4v15.57c0 .66-.536 1.197-1.197 1.197h-9.58v-.92c.58-.202 2.097-.677 3.592-.677 3.477 0 5.838.77 5.86.778.122.04.256.02.36-.055.105-.074.166-.195.166-.323V10.392c0-.188-.13-.35-.312-.39 0 0-.313-.07-.848-.168-.216-.04-.425.104-.465.32-.04.217.105.425.32.465.205.037.376.07.508.096v16.71c-.905-.236-2.914-.666-5.59-.666-1.74 0-3.447.57-3.976.765-.47-.208-1.89-.765-3.608-.765-2.75 0-5.015.453-5.99.684V10.7c.8-.195 3.153-.708 5.99-.708 1.455 0 2.704.453 3.193.658v15.71c0 .144.078.277.203.348.125.07.28.07.402-.005.04-.024 3.995-2.387 7.506-3.557.163-.054.273-.206.273-.38V6.4c0-.132-.063-.254-.17-.33-.108-.073-.245-.09-.37-.045-3.193 1.198-6.425 3.21-6.457 3.23-.187.117-.244.363-.127.55.116.187.363.244.55.127.03-.02 2.84-1.768 5.777-2.95v15.5c-2.725.947-5.57 2.493-6.787 3.185V10.392c0-.152-.086-.29-.22-.358-.07-.034-1.706-.84-3.772-.84-3.608 0-6.38.78-6.498.814-.17.05-.29.206-.29.384v17.565c0 .125.06.243.16.32.07.052.154.08.24.08.037 0 .074-.006.11-.016.027-.007 2.788-.782 6.278-.782 1.46 0 2.706.454 3.193.658v.94h-9.58c-.66 0-1.198-.538-1.198-1.2V12.39c0-.22-.18-.4-.4-.4-.22 0-.4.18-.4.4v15.57c0 1.1.896 1.995 1.996 1.995h19.96c1.102 0 1.997-.895 1.997-1.996v-15.57c0-.22-.178-.4-.4-.4z"/>
        <path d="M19.617 14.964c.07.138.21.218.356.218.06 0 .123-.014.18-.043.025-.013 2.374-1.207 3.533-1.573.21-.067.327-.29.26-.5-.066-.21-.29-.328-.5-.262-1.222.386-3.555 1.572-3.654 1.622-.197.1-.275.34-.175.537zM19.617 19.755c.07.138.21.218.356.218.06 0 .123-.014.18-.044.025-.013 2.374-1.206 3.533-1.572.21-.067.327-.29.26-.5-.066-.21-.29-.328-.5-.262-1.222.386-3.555 1.572-3.654 1.622-.197.1-.275.34-.175.537zM15.672 13.41c-2.465-.58-5.266.157-5.384.19-.213.056-.34.275-.282.488.048.178.21.296.385.296.035 0 .07-.005.105-.014.027-.007 2.724-.717 4.995-.184.214.05.43-.083.48-.298.05-.214-.083-.43-.298-.48zM15.672 15.804c-2.465-.578-5.266.16-5.384.19-.213.057-.34.276-.282.49.048.178.21.295.385.295.035 0 .07-.005.105-.014.027-.008 2.724-.717 4.995-.184.214.05.43-.084.48-.298.05-.215-.083-.43-.298-.48zM19.617 22.15c.07.138.21.218.356.218.06 0 .123-.014.18-.043.025-.012 2.374-1.206 3.533-1.572.21-.067.327-.29.26-.5-.066-.21-.29-.328-.5-.262-1.222.387-3.555 1.573-3.654 1.623-.197.1-.275.34-.175.537zM15.672 18.2c-2.465-.578-5.266.158-5.384.19-.213.057-.34.275-.282.49.048.177.21.295.385.295.035 0 .07-.005.105-.014.027-.007 2.724-.716 4.995-.183.214.05.43-.083.48-.298.05-.215-.083-.43-.298-.48zM15.672 22.99c-2.465-.578-5.266.16-5.384.19-.213.057-.34.276-.282.49.048.178.21.296.385.296.035 0 .07-.005.105-.014.027-.008 2.724-.717 4.995-.185.214.05.43-.083.48-.297.05-.215-.083-.43-.298-.48zM15.672 20.595c-2.465-.58-5.266.158-5.384.19-.213.057-.34.276-.282.49.048.177.21.295.385.295.035 0 .07-.005.105-.014.027-.007 2.724-.717 4.995-.184.214.05.43-.083.48-.298.05-.214-.083-.43-.298-.48z"/>
      </g>
    </g>
  </g>
</svg>
