<svg width="100" height="100" xmlns="http://www.w3.org/2000/svg">
  <g fill="none" fill-rule="evenodd">
    <circle fill="#D6E2F4" cx="50" cy="50" r="50"/>
    <path d="M80.487 39.26c0-4.57-3.663-8.26-8.234-8.26-4.57 0-8.26 3.69-8.26 8.26 0 4.572 3.69 8.262 8.26 8.262s8.234-3.69 8.234-8.26zm-22.03 0c0-4.57-3.662-8.26-8.234-8.26-4.57 0-8.26 3.69-8.26 8.26 0 4.572 3.69 8.262 8.26 8.262 4.572 0 8.234-3.69 8.234-8.26zM30.947 62.67v6.884H69.5v-6.884c0-6.416-12.86-9.638-19.277-9.638-6.416 0-19.276 3.222-19.276 9.638zm38.023-9.5c3.194 2.313 5.425 5.424 5.425 9.5v6.884h16.522v-6.884c0-6.416-12.86-9.638-19.276-9.638-.797 0-1.706.055-2.67.138zM20.238 39.26c0-4.57 3.663-8.26 8.234-8.26 4.57 0 8.26 3.69 8.26 8.26 0 4.572-3.69 8.262-8.26 8.262s-8.234-3.69-8.234-8.26zm10.71 13.908c-3.195 2.313-5.426 5.424-5.426 9.5v6.884H9v-6.884c0-6.416 12.86-9.638 19.276-9.638.8 0 1.707.055 2.67.138z" fill="#4A4A4A"/>
  </g>
</svg>
